<?xml version="1.0" encoding="UTF-8"?>
<!-- Uploaded to: SVG Find, www.svgrepo.com, Generator: SVG Find Mixer Tools -->
<svg fill="#000000" width="800px" height="800px" version="1.1" viewBox="144 144 512 512" xmlns="http://www.w3.org/2000/svg">
 <g>
  <path d="m382.45 541.72v22.387c0 2.1719-1.7617 3.9375-3.9375 3.9375h-81.918c-2.1719 0-3.9375-1.7617-3.9375-3.9375v-22.387z"/>
  <path d="m287.17 373.04c4.9453 0 9.1484 1.9219 12.5 5.707 9.8477 11.109 9.4141 36.016 8.5664 47.918-5.3594 1.0703-10.516 3.793-12.949 7.2578-6.1562 8.7227-5.6211 29.031 21.082 49.191 0.71484 0.53516 1.543 0.79687 2.3789 0.79687 1.1875 0 2.3711-0.53516 3.1406-1.5664 1.3086-1.7305 0.96094-4.2031-0.76953-5.5117-20.906-15.793-23.672-31.047-19.145-37.48 0.8125-1.1406 4.3945-4.3828 7.6445-5.0078 6.3984-1.2266 11.375 1.5977 11.848 1.9844 43.934 35.723 45.68 63.582 45.738 97.52h-52.625c-1.1016-12.297-7.3828-16.484-15.871-21.965-14.199-9.1797-31.875-20.594-31.875-72.516 0.51562-19.945 3.5234-66.328 20.336-66.328z"/>
  <path d="m482.98 301.88c-1.0469 0-2.1016-0.41797-2.875-1.2422-1.4805-1.582-1.4023-4.0781 0.17969-5.5664l23.617-22.145c1.582-1.4805 4.0781-1.4102 5.5664 0.17969 1.4805 1.582 1.4023 4.0781-0.17969 5.5664l-23.617 22.145c-0.76172 0.70703-1.7227 1.0625-2.6914 1.0625z"/>
  <path d="m506.6 341.68c-0.875 0-1.7539-0.29297-2.4727-0.88281l-23.617-19.152c-1.6914-1.3711-1.9531-3.8477-0.58203-5.5352 1.3789-1.6914 3.8633-1.9453 5.5352-0.57422l23.617 19.152c1.6914 1.3711 1.9531 3.8477 0.58203 5.5352-0.78125 0.96094-1.9219 1.457-3.0625 1.457z"/>
  <path d="m516.44 312.2h-21.648c-2.1719 0-3.9375-1.7617-3.9375-3.9375 0-2.1719 1.7617-3.9375 3.9375-3.9375h21.648c2.1719 0 3.9375 1.7617 3.9375 3.9375 0 2.1719-1.7656 3.9375-3.9375 3.9375z"/>
  <path d="m308.88 296.36c-0.96875 0-1.9375-0.35547-2.6914-1.0625l-23.617-22.145c-1.5898-1.4883-1.668-3.9766-0.17969-5.5664 1.4883-1.5898 3.9766-1.6602 5.5664-0.17969l23.617 22.145c1.5898 1.4883 1.668 3.9766 0.17969 5.5664-0.78125 0.82422-1.8281 1.2422-2.875 1.2422z"/>
  <path d="m285.27 336.17c-1.1484 0-2.2812-0.49609-3.0625-1.457-1.3711-1.6836-1.1094-4.1641 0.57422-5.5352l23.617-19.152c1.6914-1.3711 4.1719-1.1172 5.5352 0.57422 1.3711 1.6836 1.1094 4.1641-0.57422 5.5352l-23.617 19.152c-0.72656 0.59375-1.6094 0.88281-2.4727 0.88281z"/>
  <path d="m297.07 306.68h-21.648c-2.1719 0-3.9375-1.7617-3.9375-3.9375 0-2.1719 1.7617-3.9375 3.9375-3.9375h21.648c2.1719 0 3.9375 1.7617 3.9375 3.9375 0 2.1758-1.7617 3.9375-3.9375 3.9375z"/>
  <path d="m495.51 236.97c-1.1484-1.8594-3.5586-2.418-5.4141-1.3008l-4.7695 2.9219-2.9219-4.7617c-1.1406-1.8594-3.582-2.418-5.4141-1.3008-1.8594 1.1328-2.4414 3.5586-1.3086 5.4141l2.9219 4.7695-4.7773 2.9297c-1.8516 1.1328-2.4336 3.5586-1.3008 5.4141 0.74609 1.2109 2.0391 1.8828 3.3633 1.8828 0.70703 0 1.418-0.1875 2.0625-0.58203l4.7695-2.9219 2.9219 4.7617c0.74609 1.2109 2.0391 1.8828 3.3633 1.8828 0.70703 0 1.418-0.1875 2.0547-0.58203 1.8594-1.1328 2.4414-3.5586 1.3086-5.4141l-2.9219-4.7695 4.7773-2.9297c1.8359-1.1406 2.4102-3.5625 1.2852-5.4141z"/>
  <path d="m323.74 346.58c-1.1328-1.8516-3.5586-2.4336-5.4141-1.3008l-4.7656 2.9219-2.9219-4.7695c-1.1328-1.8516-3.5508-2.4414-5.4141-1.3008-1.8516 1.1328-2.4414 3.5586-1.3008 5.4141l2.9219 4.7695-4.7695 2.9219c-1.8516 1.1328-2.4414 3.5586-1.3008 5.4141 0.73828 1.2109 2.0312 1.8828 3.3633 1.8828 0.69922 0 1.4102-0.1875 2.0547-0.58203l4.7695-2.9219 2.9219 4.7695c0.73828 1.2109 2.0312 1.8828 3.3633 1.8828 0.69922 0 1.4102-0.1875 2.0547-0.58203 1.8516-1.1328 2.4414-3.5586 1.3008-5.4141l-2.9219-4.7695 4.7695-2.9219c1.8477-1.1406 2.4297-3.5625 1.2891-5.4141z"/>
  <path d="m464.29 284.82h-25.672c20.461-18.168 15.973-35.336 13.832-40.652-1.9062-4.7148-5.4336-8.0312-10.211-9.5898-7.4766-2.4492-16.453-0.10156-21.641 3.1094-11.445 7.0859-19.5 16.516-23.938 27.805-4.3945-11.547-12.523-21.168-24.16-28.379-5.1797-3.2031-14.152-5.5508-21.641-3.1094-4.7617 1.5586-8.2891 4.8711-10.195 9.5898-4.3672 10.816-2.4492 26.574 13.824 41.219h-25.664c-2.1719 0-3.9375 1.7617-3.9375 3.9375v21.059h143.33v-21.059c0.007812-2.168-1.7578-3.9297-3.9297-3.9297zm-39.539-40.441c3.7539-2.332 10.406-3.832 15.043-2.3203 2.5664 0.83594 4.3125 2.4961 5.3516 5.0547 1.8359 4.5586 5.7461 20.594-19.383 37.707h-7.4609l6.9492-10.227c1.2188-1.8008 0.76172-4.25-1.0391-5.4727-1.7695-1.2109-4.2344-0.76172-5.4648 1.0391l-9.9648 14.656h-8.125c0.82812-17.371 8.8516-30.996 24.094-40.438zm-76.785 2.1758c1.0391-2.5664 2.7852-4.2188 5.3516-5.0547 4.6133-1.5117 11.281-0.007812 15.043 2.3203 15.406 9.5312 23.441 23.348 24.121 40.996l-8.1484 0.003907-9.957-14.656c-1.2188-1.793-3.6602-2.2656-5.4727-1.0391-1.793 1.2188-2.2656 3.668-1.0391 5.4727l6.9492 10.227h-7.5117c-20.035-13.672-23.211-28.684-19.336-38.27z"/>
  <path d="m387.18 317.69v36.984l7.3047-4.5273c0.15625-0.10156 0.33984-0.11719 0.50391-0.1875 0.26953-0.11719 0.52734-0.25 0.82031-0.30859 0.25-0.046876 0.49609-0.03125 0.74609-0.03125s0.49609-0.023438 0.74609 0.03125c0.29297 0.054687 0.55859 0.1875 0.83594 0.31641 0.15625 0.070312 0.33984 0.085937 0.48828 0.17969l7.3047 4.5273v-36.984z"/>
  <path d="m413.8 317.69v44.051c0 1.4336-0.78125 2.7461-2.0234 3.4414-0.58984 0.33203-1.25 0.49609-1.9141 0.49609-0.72266 0-1.4414-0.19531-2.0703-0.58984l-11.242-6.9648-11.242 6.9648c-0.63672 0.39453-1.3555 0.58984-2.0703 0.58984-0.65234 0-1.3164-0.16406-1.9141-0.49609-1.25-0.69141-2.0234-2.0078-2.0234-3.4414v-44.051h-41.305v83.789c0 2.1719 1.7617 3.9375 3.9375 3.9375h108.57c0.60547 0 1.0156-0.10156 1.332-0.26953 1.5039-0.54297 2.5977-1.9453 2.6055-3.6367l0.62109-83.82z"/>
  <path d="m417.55 541.72v22.387c0 2.1719 1.7617 3.9375 3.9375 3.9375h81.918c2.1719 0 3.9375-1.7617 3.9375-3.9375v-22.387z"/>
  <path d="m512.83 373.04c-4.9453 0-9.1484 1.9219-12.5 5.707-9.8477 11.109-9.4141 36.016-8.5664 47.918 5.3594 1.0703 10.516 3.793 12.949 7.2578 6.1562 8.7227 5.6211 29.031-21.082 49.191-0.71484 0.53516-1.543 0.79687-2.3789 0.79687-1.1875 0-2.3711-0.53516-3.1406-1.5664-1.3086-1.7305-0.96094-4.2031 0.76953-5.5117 20.906-15.793 23.672-31.047 19.145-37.48-0.8125-1.1406-4.3945-4.3828-7.6445-5.0078-6.3984-1.2266-11.375 1.5977-11.848 1.9844-43.934 35.723-45.68 63.582-45.738 97.52h52.625c1.1016-12.297 7.3828-16.484 15.871-21.965 14.199-9.1797 31.875-20.594 31.875-72.516-0.51562-19.945-3.5195-66.328-20.336-66.328z"/>
 </g>
</svg>